<!--?xml version="1.0" encoding="utf-8"?-->
<!-- Svg Vector Icons : http://www.onlinewebfonts.com/icon -->

<svg version="1.1" xmlns="http://www.w3.org/2000/svg" xmlns:xlink="http://www.w3.org/1999/xlink" x="0px" y="0px" viewBox="0 0 256 256" enable-background="new 0 0 256 256" xml:space="preserve">
<metadata> Svg Vector Icons : http://www.onlinewebfonts.com/icon </metadata>
<g><g><path fill="#504f4f" data-title="Layer 0" xs="0" d="M56.6,50.3h31.1v31.1H56.6V50.3z"/><path fill="#504f4f" data-title="Layer 1" xs="1" d="M103.2,50.3h31.1v31.1h-31.1V50.3z"/><path fill="#504f4f" data-title="Layer 2" xs="2" d="M56.6,112.5h31.1v31.1H56.6V112.5z"/><path fill="#504f4f" data-title="Layer 3" xs="3" d="M103.2,112.5h31.1v31.1h-31.1V112.5z"/><path fill="#504f4f" data-title="Layer 4" xs="4" d="M56.6,174.6h31.1v31.1H56.6V174.6z"/><path fill="#504f4f" data-title="Layer 5" xs="5" d="M103.2,174.6h31.1v31.1h-31.1V174.6z"/><path fill="#504f4f" data-title="Layer 6" xs="6" d="M180.9,128V3.7H10v248.6h158.3h12.7H246V128H180.9z M168.1,239.5H22.9V16.5h145.2V239.5z M232.5,238.8h-50.7v-97.3h50.7V238.8z"/></g></g>
</svg>