<!--?xml version="1.0" encoding="utf-8"?-->
<!-- Svg Vector Icons : http://www.onlinewebfonts.com/icon -->

<svg version="1.1" xmlns="http://www.w3.org/2000/svg" xmlns:xlink="http://www.w3.org/1999/xlink" x="0px" y="0px" viewBox="0 0 256 256" enable-background="new 0 0 256 256" xml:space="preserve">
<metadata> Svg Vector Icons : http://www.onlinewebfonts.com/icon </metadata>
<g><g><path fill="#5e5e5e" data-title="Layer 0" xs="0" d="M184.8,192.9c-10.3,0-20.7,5.9-25.1,16.2h-38.4c-8.9,0-17.7-7.4-17.7-17.7v-44.3c5.9,3,10.3,4.4,17.7,4.4h38.4c4.4,8.8,13.3,16.2,25.1,16.2c14.7,0,26.5-11.8,26.5-26.6c0-14.8-11.8-26.6-26.5-26.6c-10.3,0-20.7,5.9-25.1,16.2h-38.4c-8.9-4.4-17.7-11.8-17.7-20.7v-2.9c22.1-4.4,38.4-23.6,38.4-47.2c0-28-20.7-50.1-48.7-50.1S44.7,33.6,44.7,60.2c0,22.1,16.2,41.3,36.9,47.2v82.6c0,22.1,17.7,39.8,39.8,39.8h38.4c4.4,8.9,13.3,16.2,25.1,16.2c14.7,0,26.5-11.8,26.5-26.6S199.5,192.9,184.8,192.9z M184.8,125c8.9,0,16.2,7.4,16.2,16.2s-7.4,16.2-16.2,16.2s-16.2-7.4-16.2-16.2C170,132.4,175.9,125,184.8,125z M99.2,85.2c0,4.4-1.5,5.9-4.4,5.9h-4.4c-1.5,0-4.4-1.5-4.4-4.4V67.5H66.8c-4.4,0-5.9-4.4-5.9-5.9v-4.4c0-1.5,1.5-4.4,4.4-4.4h19.2V33.6c0-4.4,4.4-5.9,5.9-5.9h4.4c4.4,0,5.9,4.4,5.9,5.9v19.2h17.7c4.4,0,5.9,1.5,5.9,4.4v4.4c0,4.4-4.4,5.9-5.9,5.9H99.2V85.2z M184.8,235.6c-8.9,0-16.2-7.4-16.2-16.2c0-8.8,7.4-16.2,16.2-16.2s16.2,7.4,16.2,16.2C201,228.3,193.6,235.6,184.8,235.6z"/></g></g>
</svg>